HIERARCHY
ROOT newVegas:Hips
{
	OFFSET 0.000000 96.479958 0.000000
	CHANNELS 6 Xposition Yposition Zposition Xrotation Yrotation Zrotation
	JOINT newVegas:Pelvis
	{
		OFFSET 0.000000 0.000000 0.000000
		CHANNELS 3 Xrotation Yrotation Zrotation
		JOINT newVegas:LeftUpLeg
		{
			OFFSET 18.735201 -5.666702 -4.541200
			CHANNELS 3 Xrotation Yrotation Zrotation
			JOINT newVegas:LeftLeg
			{
				OFFSET -0.021200 -31.938179 0.493100
				CHANNELS 3 Xrotation Yrotation Zrotation
				JOINT newVegas:LeftFoot
				{
					OFFSET 0.021200 -31.938179 -4.336299
					CHANNELS 3 Xrotation Yrotation Zrotation
					JOINT newVegas:LeftToeBase
					{
						OFFSET 0.943001 -26.722000 15.023500
						CHANNELS 3 Xrotation Yrotation Zrotation
						End Site
						{
							OFFSET 0.000000 30.670183 0.000000
						}
					}
				}
				JOINT newVegas:Left_PantLeg
				{
					OFFSET 0.663870 -9.044666 -1.108900
					CHANNELS 3 Xrotation Yrotation Zrotation
					End Site
					{
						OFFSET 1.415995 20.635357 0.000000
					}
				}
			}
		}
		JOINT newVegas:RightUpLeg
		{
			OFFSET -18.735201 -5.666702 -4.541200
			CHANNELS 3 Xrotation Yrotation Zrotation
			JOINT newVegas:RightLeg
			{
				OFFSET 0.018946 -31.938133 0.493100
				CHANNELS 3 Xrotation Yrotation Zrotation
				JOINT newVegas:RightFoot
				{
					OFFSET -0.018946 -31.938126 -4.336299
					CHANNELS 3 Xrotation Yrotation Zrotation
					JOINT newVegas:RightToeBase
					{
						OFFSET -0.943001 -26.722004 15.023500
						CHANNELS 3 Xrotation Yrotation Zrotation
						End Site
						{
							OFFSET 0.000000 30.670187 0.000000
						}
					}
				}
				JOINT newVegas:Right_PantLeg
				{
					OFFSET -0.661674 -9.044716 -1.108900
					CHANNELS 3 Xrotation Yrotation Zrotation
					End Site
					{
						OFFSET -1.415958 20.635269 0.000000
					}
				}
			}
		}
	}
	JOINT newVegas:Spine
	{
		OFFSET 0.000000 10.199997 -0.299500
		CHANNELS 3 Xrotation Yrotation Zrotation
		JOINT newVegas:Spine1
		{
			OFFSET 0.000000 11.900002 -1.516600
			CHANNELS 3 Xrotation Yrotation Zrotation
			JOINT newVegas:Spine2
			{
				OFFSET 0.000000 13.600006 -2.842500
				CHANNELS 3 Xrotation Yrotation Zrotation
				JOINT newVegas:Neck
				{
					OFFSET 0.000000 9.624100 -2.890100
					CHANNELS 3 Xrotation Yrotation Zrotation
					JOINT newVegas:Head
					{
						OFFSET 0.000000 14.068802 -1.351900
						CHANNELS 3 Xrotation Yrotation Zrotation
						JOINT newVegas:Hair_Back
						{
							OFFSET 0.000000 3.231903 -17.524799
							CHANNELS 3 Xrotation Yrotation Zrotation
							End Site
							{
								OFFSET 0.000000 19.849884 0.000000
							}
						}
						JOINT newVegas:Hair_Front
						{
							OFFSET 0.000000 31.260406 4.573800
							CHANNELS 3 Xrotation Yrotation Zrotation
							JOINT newVegas:Hair_Front1
							{
								OFFSET 0.000000 2.284103 11.993300
								CHANNELS 3 Xrotation Yrotation Zrotation
								JOINT newVegas:Hair_Front2
								{
									OFFSET 0.000000 2.284103 11.993300
									CHANNELS 3 Xrotation Yrotation Zrotation
									End Site
									{
										OFFSET 0.000000 12.208862 0.000000
									}
								}
							}
						}
						JOINT newVegas:Jowel
						{
							OFFSET 0.000000 -7.458206 6.864100
							CHANNELS 3 Xrotation Yrotation Zrotation
							End Site
							{
								OFFSET 0.000000 19.849884 0.000000
							}
						}
					}
				}
				JOINT newVegas:LeftShoulder
				{
					OFFSET 15.263000 10.923401 -0.547700
					CHANNELS 3 Xrotation Yrotation Zrotation
					JOINT newVegas:LeftArm
					{
						OFFSET 25.438599 -2.830597 -13.032500
						CHANNELS 3 Xrotation Yrotation Zrotation
						JOINT newVegas:LeftForeArm
						{
							OFFSET 29.960503 0.000000 0.000000
							CHANNELS 3 Xrotation Yrotation Zrotation
							JOINT newVegas:LeftHand
							{
								OFFSET 27.849251 0.000000 0.000000
								CHANNELS 3 Xrotation Yrotation Zrotation
								JOINT newVegas:LeftHandThumb1
								{
									OFFSET 4.487587 -3.305161 6.305391
									CHANNELS 3 Xrotation Yrotation Zrotation
									JOINT newVegas:LeftHandThumb2
									{
										OFFSET 5.480453 -3.164139 3.164143
										CHANNELS 3 Xrotation Yrotation Zrotation
										JOINT newVegas:LeftHandThumb3
										{
											OFFSET 5.159721 -2.978973 2.978967
											CHANNELS 3 Xrotation Yrotation Zrotation
											End Site
											{
												OFFSET 2.494507 5.926697 1.738678
											}
										}
									}
								}
								JOINT newVegas:LeftHandIndex1
								{
									OFFSET 18.578728 -0.527832 5.208049
									CHANNELS 3 Xrotation Yrotation Zrotation
									JOINT newVegas:LeftHandIndex2
									{
										OFFSET 3.192009 0.000000 0.000000
										CHANNELS 3 Xrotation Yrotation Zrotation
										JOINT newVegas:LeftHandIndex3
										{
											OFFSET 3.835129 0.000000 0.000000
											CHANNELS 3 Xrotation Yrotation Zrotation
											End Site
											{
												OFFSET -0.034599 3.816971 0.371180
											}
										}
									}
								}
								JOINT newVegas:LeftHandMiddle1
								{
									OFFSET 18.476105 0.000000 0.000000
									CHANNELS 3 Xrotation Yrotation Zrotation
									JOINT newVegas:LeftHandMiddle2
									{
										OFFSET 3.324875 0.000000 0.000000
										CHANNELS 3 Xrotation Yrotation Zrotation
										JOINT newVegas:LeftHandMiddle3
										{
											OFFSET 4.596550 0.000000 0.000000
											CHANNELS 3 Xrotation Yrotation Zrotation
											End Site
											{
												OFFSET 0.057701 4.578827 0.399218
											}
										}
									}
								}
								JOINT newVegas:LeftHandRing1
								{
									OFFSET 17.732719 0.121887 -4.201567
									CHANNELS 3 Xrotation Yrotation Zrotation
									JOINT newVegas:LeftHandRing2
									{
										OFFSET 2.733170 0.000000 0.000000
										CHANNELS 3 Xrotation Yrotation Zrotation
										JOINT newVegas:LeftHandRing3
										{
											OFFSET 3.178268 0.000000 0.000000
											CHANNELS 3 Xrotation Yrotation Zrotation
											End Site
											{
												OFFSET 0.119102 3.170624 0.185394
											}
										}
									}
								}
								JOINT newVegas:LeftHandPinky1
								{
									OFFSET 15.989624 -0.606689 -7.535461
									CHANNELS 3 Xrotation Yrotation Zrotation
									JOINT newVegas:LeftHandPinky2
									{
										OFFSET 2.538986 0.000000 0.000000
										CHANNELS 3 Xrotation Yrotation Zrotation
										JOINT newVegas:LeftHandPinky3
										{
											OFFSET 2.593102 0.000000 0.000000
											CHANNELS 3 Xrotation Yrotation Zrotation
											End Site
											{
												OFFSET -0.150902 2.584198 0.152708
											}
										}
									}
								}
							}
							JOINT newVegas:Left_Sleeve
							{
								OFFSET 0.267448 -0.649796 0.577675
								CHANNELS 3 Xrotation Yrotation Zrotation
								End Site
								{
									OFFSET 0.000000 15.991241 0.000000
								}
							}
							JOINT newVegas:Left_CapeC
							{
								OFFSET 15.715958 -8.608795 -6.935905
								CHANNELS 3 Xrotation Yrotation Zrotation
								JOINT newVegas:Left_CapeC1
								{
									OFFSET 0.000000 -8.688499 0.000000
									CHANNELS 3 Xrotation Yrotation Zrotation
									End Site
									{
										OFFSET 0.000000 8.688499 0.000000
									}
								}
							}
						}
						JOINT newVegas:Left_CapeB
						{
							OFFSET 26.118385 -8.608795 -7.079235
							CHANNELS 3 Xrotation Yrotation Zrotation
							JOINT newVegas:Left_CapeB1
							{
								OFFSET 0.000000 -8.688499 0.000000
								CHANNELS 3 Xrotation Yrotation Zrotation
								End Site
								{
									OFFSET 0.000000 8.688499 0.000000
								}
							}
						}
						JOINT newVegas:Left_CapeA
						{
							OFFSET 5.115639 -8.608795 -10.395809
							CHANNELS 3 Xrotation Yrotation Zrotation
							JOINT newVegas:Left_CapeA1
							{
								OFFSET 0.000000 -8.688499 0.000000
								CHANNELS 3 Xrotation Yrotation Zrotation
								End Site
								{
									OFFSET 0.000000 8.688499 0.000000
								}
							}
						}
					}
				}
				JOINT newVegas:RightShoulder
				{
					OFFSET -15.263000 10.923401 -0.547700
					CHANNELS 3 Xrotation Yrotation Zrotation
					JOINT newVegas:RightArm
					{
						OFFSET -25.438599 -2.830597 -13.032500
						CHANNELS 3 Xrotation Yrotation Zrotation
						JOINT newVegas:RightForeArm
						{
							OFFSET -29.960503 0.000000 0.000000
							CHANNELS 3 Xrotation Yrotation Zrotation
							JOINT newVegas:RightHand
							{
								OFFSET -27.849251 0.000000 0.000000
								CHANNELS 3 Xrotation Yrotation Zrotation
								JOINT newVegas:RightHandThumb1
								{
									OFFSET -4.487587 -3.305161 6.305391
									CHANNELS 3 Xrotation Yrotation Zrotation
									JOINT newVegas:RightHandThumb2
									{
										OFFSET -5.480453 -3.164139 3.164143
										CHANNELS 3 Xrotation Yrotation Zrotation
										JOINT newVegas:RightHandThumb3
										{
											OFFSET -5.159721 -2.978973 2.978967
											CHANNELS 3 Xrotation Yrotation Zrotation
											End Site
											{
												OFFSET -2.494507 5.926697 1.738678
											}
										}
									}
								}
								JOINT newVegas:RightHandIndex1
								{
									OFFSET -18.578728 -0.527832 5.208049
									CHANNELS 3 Xrotation Yrotation Zrotation
									JOINT newVegas:RightHandIndex2
									{
										OFFSET -3.192009 0.000000 0.000000
										CHANNELS 3 Xrotation Yrotation Zrotation
										JOINT newVegas:RightHandIndex3
										{
											OFFSET -3.835129 0.000000 0.000000
											CHANNELS 3 Xrotation Yrotation Zrotation
											End Site
											{
												OFFSET 0.034599 3.816971 0.371180
											}
										}
									}
								}
								JOINT newVegas:RightHandMiddle1
								{
									OFFSET -18.476105 0.000000 0.000000
									CHANNELS 3 Xrotation Yrotation Zrotation
									JOINT newVegas:RightHandMiddle2
									{
										OFFSET -3.324875 0.000000 0.000000
										CHANNELS 3 Xrotation Yrotation Zrotation
										JOINT newVegas:RightHandMiddle3
										{
											OFFSET -4.596550 0.000000 0.000000
											CHANNELS 3 Xrotation Yrotation Zrotation
											End Site
											{
												OFFSET -0.057701 4.578827 0.399218
											}
										}
									}
								}
								JOINT newVegas:RightHandRing1
								{
									OFFSET -17.732719 0.121887 -4.201567
									CHANNELS 3 Xrotation Yrotation Zrotation
									JOINT newVegas:RightHandRing2
									{
										OFFSET -2.733170 0.000000 0.000000
										CHANNELS 3 Xrotation Yrotation Zrotation
										JOINT newVegas:RightHandRing3
										{
											OFFSET -3.178268 0.000000 0.000000
											CHANNELS 3 Xrotation Yrotation Zrotation
											End Site
											{
												OFFSET -0.119102 3.170624 0.185394
											}
										}
									}
								}
								JOINT newVegas:RightHandPinky1
								{
									OFFSET -15.989624 -0.606689 -7.535461
									CHANNELS 3 Xrotation Yrotation Zrotation
									JOINT newVegas:RightHandPinky2
									{
										OFFSET -2.538986 0.000000 0.000000
										CHANNELS 3 Xrotation Yrotation Zrotation
										JOINT newVegas:RightHandPinky3
										{
											OFFSET -2.593102 0.000000 0.000000
											CHANNELS 3 Xrotation Yrotation Zrotation
											End Site
											{
												OFFSET 0.150902 2.584198 0.152708
											}
										}
									}
								}
							}
							JOINT newVegas:Right_CapeC
							{
								OFFSET -15.715958 -8.608795 -6.935905
								CHANNELS 3 Xrotation Yrotation Zrotation
								JOINT newVegas:Right_CapeC1
								{
									OFFSET 0.000000 -8.688499 0.000000
									CHANNELS 3 Xrotation Yrotation Zrotation
									End Site
									{
										OFFSET 0.000000 8.688499 0.000000
									}
								}
							}
							JOINT newVegas:Right_Sleeve
							{
								OFFSET -0.267448 -0.649994 0.577675
								CHANNELS 3 Xrotation Yrotation Zrotation
								End Site
								{
									OFFSET 0.000000 15.991302 0.000000
								}
							}
						}
						JOINT newVegas:Right_CapeA
						{
							OFFSET -5.115540 -8.608795 -10.395824
							CHANNELS 3 Xrotation Yrotation Zrotation
							JOINT newVegas:Right_CapeA1
							{
								OFFSET 0.000000 -8.688499 0.000000
								CHANNELS 3 Xrotation Yrotation Zrotation
								End Site
								{
									OFFSET 0.000000 8.688499 0.000000
								}
							}
						}
						JOINT newVegas:Right_CapeB
						{
							OFFSET -26.118187 -8.608795 -7.079266
							CHANNELS 3 Xrotation Yrotation Zrotation
							JOINT newVegas:Right_CapeB1
							{
								OFFSET 0.000000 -8.688499 0.000000
								CHANNELS 3 Xrotation Yrotation Zrotation
								End Site
								{
									OFFSET 0.000000 8.688499 0.000000
								}
							}
						}
					}
				}
				JOINT newVegas:Left_Collar
				{
					OFFSET 18.625099 8.655502 8.828100
					CHANNELS 3 Xrotation Yrotation Zrotation
					JOINT newVegas:Left_Collar1
					{
						OFFSET 14.783401 10.540405 -1.259500
						CHANNELS 3 Xrotation Yrotation Zrotation
						End Site
						{
							OFFSET 0.000000 18.199875 0.000000
						}
					}
				}
				JOINT newVegas:Collar_Back
				{
					OFFSET 0.000000 15.630707 -20.132601
					CHANNELS 3 Xrotation Yrotation Zrotation
					End Site
					{
						OFFSET 0.000000 22.523010 0.000000
					}
				}
				JOINT newVegas:Left_Peck
				{
					OFFSET 17.239599 -5.132599 25.482599
					CHANNELS 3 Xrotation Yrotation Zrotation
					End Site
					{
						OFFSET 0.000000 22.523010 0.000000
					}
				}
				JOINT newVegas:Right_Peck
				{
					OFFSET -17.239599 -5.132202 25.482599
					CHANNELS 3 Xrotation Yrotation Zrotation
					End Site
					{
						OFFSET 0.000000 22.523010 0.000000
					}
				}
				JOINT newVegas:Right_Collar
				{
					OFFSET -18.625099 8.655792 8.828100
					CHANNELS 3 Xrotation Yrotation Zrotation
					JOINT newVegas:Right_Collar1
					{
						OFFSET -14.783401 10.539993 -1.259500
						CHANNELS 3 Xrotation Yrotation Zrotation
						End Site
						{
							OFFSET 0.000000 18.199631 0.000000
						}
					}
				}
			}
		}
		JOINT newVegas:Belly
		{
			OFFSET 0.000000 -6.540398 9.014299
			CHANNELS 3 Xrotation Yrotation Zrotation
			End Site
			{
				OFFSET 0.000000 11.566666 0.000000
			}
		}
	}
	JOINT newVegas:ElvisFacialAnim_Joint
	{
		OFFSET 1.000000 -95.330101 -8.825800
		CHANNELS 3 Xrotation Yrotation Zrotation
		End Site
		{
			OFFSET 0.000000 35.315800 0.000000
		}
	}
}
MOTION
Frames: 4
Frame Time: 0.033333
-0.114668 109.462723 2.750732 -90.804961 -2.089803 1.699091 -0.000000 0.000000 -0.000000 -10.372500 17.330295 19.704580 12.474673 1.177404 1.433163 21.983305 29.940841 -28.489426 -0.000000 0.000001 0.000000 -0.000000 0.000001 0.000003 -13.889230 -16.053924 -21.599940 14.262660 -5.348443 -4.601755 32.414408 -29.898129 33.613560 0.000000 0.000000 0.000000 0.000001 -0.000002 0.000000 0.699773 -0.108864 -0.863702 0.829802 0.147707 -0.476880 0.822742 0.127563 -0.494509 -1.633115 1.536598 -3.394885 -1.633128 1.536597 -3.394885 -0.000000 -0.000000 0.000001 -1.633124 1.536590 -3.394881 -1.633018 1.536610 -3.394889 -0.000000 -0.000000 0.000000 -0.000000 -0.000000 0.000000 0.828016 -6.725709 -3.482078 44.073759 -39.841976 -34.630234 -0.000014 -83.354522 -0.000015 -23.110133 -8.485289 7.479593 -1.948208 1.589343 13.204277 8.601839 21.114937 -0.258289 0.000000 -0.000000 -0.000005 0.776294 5.158042 -28.512483 0.566012 2.514188 -25.370934 -0.000001 -0.000001 0.000001 0.776303 5.158034 -28.512483 0.566017 2.514174 -25.370936 -0.000001 -0.000000 -0.000001 0.776302 5.158030 -28.512485 0.351471 2.000413 -19.928014 -0.000001 -0.000001 0.000001 0.761379 5.166124 -28.511149 0.064899 0.870525 -8.527008 0.000001 -0.000003 -0.000000 0.000000 -0.000000 -0.000000 0.000000 -0.000000 -0.000000 0.000000 -0.000000 0.000000 -0.000002 -0.000002 -0.000002 -0.000002 -0.000003 -0.000003 -0.000002 -0.000002 -0.000002 -0.000002 -0.000003 -0.000001 0.480887 4.498794 3.203395 -4.324201 2.271639 83.610333 -0.000027 129.570833 0.000015 -0.047215 -5.734971 64.762337 -1.120896 -3.665704 -6.555861 8.244846 -30.620786 -3.274789 0.000000 -0.000003 0.000001 4.540603 -8.344338 48.387406 6.575564 -4.244516 114.349067 0.000001 0.000003 -0.000003 2.375491 -6.542184 44.640207 7.222570 -3.888152 123.454809 -0.000004 -0.000000 -0.000000 2.745577 -6.923846 44.442289 7.225013 -3.886572 123.490285 0.000001 0.000001 0.000001 -10.268019 -14.528502 47.436299 6.314122 -4.353032 110.862931 0.000001 0.000003 -0.000003 0.000000 0.000000 -0.000001 -0.000000 0.000000 -0.000001 0.000000 0.000000 -0.000001 0.000000 0.000001 -0.000000 0.000000 0.000001 -0.000000 0.000000 0.000001 -0.000000 0.000000 0.000001 -0.000000 -0.000000 -0.000000 0.000000 -0.000000 -0.000000 0.000000 -0.000000 -0.000000 0.000000 -0.000000 -0.000000 0.000000 -0.000000 -0.000000 0.000000 -0.000000 -0.000000 0.000000 -0.000000 -0.000000 0.000000 0.000000 -0.000000 0.000000 -0.000000 0.000000 -0.000000 
-0.113087 109.462990 2.750160 -90.804626 -2.089757 1.698725 0.000000 0.000000 -0.000000 -10.374388 17.336338 19.696959 12.480140 1.199521 1.433522 21.968228 29.939069 -28.485212 0.000001 -0.000001 -0.000000 -0.000001 -0.000002 0.000003 -13.893164 -16.053195 -21.599005 14.280907 -5.394013 -4.601387 32.385619 -29.885759 33.583501 0.000001 0.000003 -0.000000 0.000000 -0.000000 0.000001 0.699787 -0.127108 -0.872953 0.839769 0.158887 -0.502656 0.832284 0.127564 -0.494510 -1.646234 1.535938 -3.401137 -1.646241 1.535936 -3.401135 0.000000 -0.000000 -0.000000 -1.646250 1.535939 -3.401140 -1.646211 1.535935 -3.401135 -0.000000 0.000000 0.000001 0.000000 -0.000000 -0.000000 0.661565 -6.743530 -4.011803 44.639398 -39.207260 -34.063485 -0.000118 -83.801046 -0.000132 -23.073964 -8.783622 8.552424 -1.915134 1.599333 13.147499 8.601840 21.114939 -0.258293 -0.000000 -0.000000 -0.000008 0.780648 5.166011 -28.601410 0.569903 2.522376 -25.459624 0.000001 0.000000 -0.000001 0.798990 5.199323 -28.749721 0.574000 2.530932 -25.552395 -0.000003 -0.000001 -0.000001 0.793140 5.188722 -28.691825 0.357929 2.018144 -20.112361 -0.000001 -0.000001 -0.000000 0.775965 5.192724 -28.675774 0.066746 0.882765 -8.647835 0.000002 -0.000005 -0.000000 0.000001 -0.000001 -0.000001 0.000001 -0.000001 -0.000001 0.000001 -0.000002 -0.000001 -0.000001 0.000002 0.000000 -0.000000 0.000001 0.000000 -0.000001 0.000002 0.000000 -0.000000 0.000003 0.000002 0.480887 4.498794 3.203395 -4.324200 2.271639 83.610333 -0.000026 129.570833 0.000015 -0.047215 -5.734974 64.762337 -1.120902 -3.665704 -6.555862 8.244841 -30.620783 -3.274794 -0.000002 -0.000001 0.000001 4.540603 -8.344336 48.387403 6.575558 -4.244513 114.349074 0.000002 0.000002 -0.000003 2.375484 -6.542187 44.640207 7.222574 -3.888151 123.454809 0.000004 -0.000001 0.000002 2.745573 -6.923849 44.442292 7.225014 -3.886573 123.490285 0.000001 -0.000001 0.000001 -10.268023 -14.528506 47.436302 6.314132 -4.353029 110.862931 0.000003 -0.000000 0.000002 0.000000 0.000000 0.000000 0.000000 -0.000002 0.000000 0.000000 0.000000 0.000000 0.000000 0.000001 -0.000000 0.000000 0.000001 -0.000000 0.000000 0.000001 -0.000000 0.000000 0.000001 -0.000000 0.000000 0.000000 -0.000000 0.000000 0.000000 -0.000000 0.000000 0.000000 -0.000000 0.000000 0.000000 -0.000000 0.000000 0.000000 -0.000000 0.000000 0.000000 -0.000000 0.000000 0.000000 -0.000000 0.000000 -0.000000 -0.000000 0.000000 0.000000 -0.000000 
-0.111668 109.464355 2.752373 -90.804073 -2.090008 1.700011 0.000000 0.000000 -0.000000 -10.383174 17.346918 19.696722 12.486670 1.177891 1.433756 21.959922 29.936405 -28.482985 -0.000000 0.000004 -0.000001 0.000000 0.000002 0.000002 -13.906361 -16.061460 -21.600021 14.291863 -5.371006 -4.601672 32.381445 -29.883522 33.576687 0.000001 -0.000000 -0.000000 0.000000 -0.000002 -0.000001 0.709271 -0.115807 -0.885495 0.854210 0.190244 -0.527474 0.861494 0.127564 -0.494510 -1.656101 1.538324 -3.416401 -1.656110 1.538324 -3.416402 -0.000000 0.000000 0.000000 -1.656056 1.538328 -3.416398 -1.656159 1.538315 -3.416398 -0.000000 -0.000000 0.000001 -0.000000 0.000000 0.000000 0.486715 -6.790355 -4.365892 44.932246 -38.589876 -33.817913 0.000195 -84.289855 0.000208 -23.045460 -9.308419 9.500447 -1.813029 1.639802 12.975267 8.601839 21.114939 -0.258293 0.000003 -0.000003 -0.000001 0.794607 5.191360 -28.884781 0.582410 2.548444 -25.742297 0.000001 0.000002 -0.000001 0.864020 5.314373 -29.436514 0.598047 2.580565 -26.091579 0.000001 0.000001 -0.000002 0.841561 5.275127 -29.223600 0.377492 2.070748 -20.660619 0.000001 0.000003 0.000002 0.817979 5.267888 -29.168603 0.072608 0.920464 -9.020218 -0.000000 -0.000003 -0.000000 -0.000001 0.000002 -0.000001 -0.000001 0.000002 -0.000001 -0.000001 0.000002 -0.000001 -0.000001 -0.000001 0.000001 -0.000001 -0.000002 0.000001 -0.000001 -0.000001 0.000001 -0.000001 -0.000000 0.000002 0.480887 4.498793 3.203395 -4.324201 2.271639 83.610333 -0.000028 129.570833 0.000014 -0.047215 -5.734971 64.762337 -1.120900 -3.665706 -6.555858 8.244837 -30.620783 -3.274794 -0.000000 -0.000003 0.000001 4.540607 -8.344337 48.387403 6.575563 -4.244516 114.349074 -0.000001 -0.000001 0.000003 2.375485 -6.542185 44.640207 7.222566 -3.888153 123.454809 -0.000002 -0.000001 0.000002 2.745577 -6.923847 44.442289 7.225013 -3.886570 123.490285 -0.000002 0.000001 -0.000000 -10.268021 -14.528504 47.436299 6.314123 -4.353031 110.862938 -0.000004 -0.000000 0.000001 0.000000 0.000001 -0.000000 -0.000000 -0.000003 0.000000 0.000000 0.000000 -0.000000 0.000000 -0.000001 -0.000000 0.000000 -0.000001 0.000000 0.000000 -0.000001 -0.000000 0.000000 -0.000001 0.000000 0.000000 -0.000000 -0.000000 0.000000 -0.000000 -0.000000 0.000000 -0.000000 -0.000000 0.000000 -0.000000 -0.000000 0.000000 -0.000000 -0.000000 0.000000 -0.000000 -0.000000 0.000000 -0.000000 -0.000000 0.000000 0.000000 -0.000000 0.000000 0.000000 -0.000000 
-0.109086 109.466309 2.755569 -90.803492 -2.090157 1.700762 0.000000 0.000000 -0.000000 -10.390054 17.364914 19.696485 12.485101 1.145430 1.434143 21.952457 29.929595 -28.487126 0.000000 0.000004 -0.000001 0.000000 0.000002 0.000003 -13.925595 -16.073479 -21.611137 14.313203 -5.337675 -4.601804 32.371098 -29.885998 33.573641 0.000002 0.000001 0.000000 -0.000000 0.000001 0.000000 0.717411 -0.092252 -0.895385 0.866927 0.233639 -0.544074 0.907777 0.127564 -0.494510 -1.656966 1.543623 -3.438704 -1.656970 1.543624 -3.438704 -0.000000 -0.000000 0.000000 -1.656938 1.543620 -3.438702 -1.656927 1.543630 -3.438705 0.000000 0.000001 -0.000000 -0.000000 -0.000000 0.000000 0.305043 -6.865609 -4.560946 44.955376 -38.003306 -33.905141 0.000064 -84.868884 0.000045 -23.032294 -9.944876 10.360313 -1.638157 1.708336 12.680332 8.601839 21.114934 -0.258295 0.000001 -0.000000 0.000002 0.819694 5.236173 -29.387647 0.604914 2.594551 -26.243887 -0.000001 -0.000001 0.000001 0.968207 5.489099 -30.535816 0.638707 2.661913 -26.980798 -0.000002 0.000000 -0.000001 0.919305 5.408137 -30.098752 0.410875 2.157135 -21.565511 0.000000 -0.000001 0.000001 0.885499 5.384171 -29.988243 0.083229 0.985042 -9.659044 0.000001 -0.000003 -0.000001 0.000001 0.000006 -0.000000 0.000001 0.000006 -0.000000 0.000000 0.000006 0.000000 -0.000001 0.000002 0.000001 -0.000001 0.000001 -0.000000 -0.000001 0.000002 0.000001 -0.000001 0.000003 0.000001 0.480887 4.498794 3.203395 -4.324200 2.271639 83.610333 -0.000028 129.570833 0.000015 -0.047215 -5.734975 64.762337 -1.120904 -3.665706 -6.555863 8.244834 -30.620790 -3.274794 0.000001 -0.000003 -0.000001 4.540603 -8.344339 48.387406 6.575559 -4.244514 114.349074 -0.000002 0.000002 -0.000002 2.375478 -6.542187 44.640211 7.222566 -3.888150 123.454822 0.000001 0.000001 -0.000000 2.745573 -6.923848 44.442292 7.225015 -3.886571 123.490285 -0.000002 -0.000001 -0.000001 -10.268027 -14.528504 47.436302 6.314127 -4.353029 110.862938 -0.000001 0.000004 -0.000005 0.000000 0.000000 -0.000000 0.000000 0.000000 -0.000001 0.000000 0.000000 -0.000001 0.000000 0.000000 0.000000 0.000001 0.000000 0.000000 0.000000 0.000000 0.000000 0.000001 -0.000000 -0.000000 -0.000000 -0.000000 -0.000000 -0.000000 -0.000000 -0.000000 -0.000000 -0.000000 -0.000000 -0.000000 -0.000000 -0.000000 -0.000000 -0.000000 -0.000000 -0.000000 -0.000000 -0.000000 -0.000000 -0.000000 -0.000000 0.000000 0.000000 -0.000000 0.000000 0.000000 -0.000000 
